<svg width="500" height="500" viewBox="0 0 588 460" fill="none" xmlns="http://www.w3.org/2000/svg">
    <path
        d="M477.773 207.834H290.69C285.426 207.834 281.159 203.336 281.159 197.787V10.0464C281.159 4.4978 285.426 0 290.69 0H477.773C483.038 0 487.305 4.4978 487.305 10.0464V197.787C487.305 203.337 483.038 207.834 477.773 207.834Z"
        fill="#6277D7" />
    <path
        d="M398.451 30.0846H309.685C308.105 30.0846 306.824 28.7345 306.824 27.0692C306.824 25.4039 308.105 24.0541 309.685 24.0541H398.451C400.031 24.0541 401.312 25.4039 401.312 27.0692C401.312 28.7345 400.031 30.0846 398.451 30.0846Z"
        fill="#E1E9FF" />
    <path
        d="M369.915 45.1278H309.685C308.105 45.1278 306.824 43.778 306.824 42.1126C306.824 40.4473 308.105 39.0972 309.685 39.0972H369.915C371.495 39.0972 372.776 40.4473 372.776 42.1126C372.776 43.778 371.495 45.1278 369.915 45.1278Z"
        fill="#E1E9FF" />
    <path
        d="M324.73 69.7746H308.867C307.738 69.7746 306.824 68.8107 306.824 67.621C306.824 66.4313 307.738 65.4674 308.867 65.4674H324.73C325.859 65.4674 326.773 66.4313 326.773 67.621C326.773 68.8107 325.859 69.7746 324.73 69.7746Z"
        fill="#89AEFF" />
    <path
        d="M331.633 138.998V192.741C331.633 193.931 330.718 194.895 329.589 194.895H321.334C320.205 194.895 319.291 193.931 319.291 192.741V138.998C319.291 137.808 320.205 136.844 321.334 136.844H329.589C330.718 136.844 331.633 137.809 331.633 138.998Z"
        fill="#89AEFF" />
    <path
        d="M354.067 117.407V192.741C354.067 193.931 353.152 194.895 352.023 194.895H343.768C342.639 194.895 341.725 193.931 341.725 192.741V117.407C341.725 116.217 342.639 115.253 343.768 115.253H352.023C353.152 115.253 354.067 116.217 354.067 117.407Z"
        fill="#89AEFF" />
    <path
        d="M381.085 138.998V192.741C381.085 193.931 380.17 194.895 379.042 194.895H370.786C369.658 194.895 368.743 193.931 368.743 192.741V138.998C368.743 137.808 369.658 136.844 370.786 136.844H379.042C380.17 136.844 381.085 137.809 381.085 138.998Z"
        fill="#89AEFF" />
    <path
        d="M403.519 117.407V192.741C403.519 193.931 402.604 194.895 401.476 194.895H393.22C392.092 194.895 391.177 193.931 391.177 192.741V117.407C391.177 116.217 392.092 115.253 393.22 115.253H401.476C402.604 115.253 403.519 116.217 403.519 117.407Z"
        fill="#89AEFF" />
    <path
        d="M430.535 154.736V192.742C430.535 193.932 429.621 194.896 428.492 194.896H420.237C419.108 194.896 418.194 193.932 418.194 192.742V154.736C418.194 153.547 419.108 152.583 420.237 152.583H428.492C429.621 152.583 430.535 153.547 430.535 154.736Z"
        fill="#89AEFF" />
    <path
        d="M452.971 138.998V192.741C452.971 193.931 452.057 194.895 450.928 194.895H442.673C441.544 194.895 440.629 193.931 440.629 192.741V138.998C440.629 137.808 441.544 136.844 442.673 136.844H450.928C452.057 136.844 452.971 137.809 452.971 138.998Z"
        fill="#89AEFF" />
    <path
        d="M331.633 158.848V192.742C331.633 193.932 330.718 194.896 329.589 194.896H321.334C320.205 194.896 319.291 193.932 319.291 192.742V158.848C319.291 157.658 320.205 156.694 321.334 156.694H329.589C330.718 156.694 331.633 157.658 331.633 158.848Z"
        fill="#D2DCFF" />
    <path
        d="M354.067 144.639V192.742C354.067 193.932 353.152 194.896 352.023 194.896H343.768C342.639 194.896 341.725 193.932 341.725 192.742V144.639C341.725 143.45 342.639 142.486 343.768 142.486H352.023C353.152 142.486 354.067 143.45 354.067 144.639Z"
        fill="#D2DCFF" />
    <path
        d="M381.085 158.848V192.742C381.085 193.932 380.17 194.896 379.042 194.896H370.786C369.658 194.896 368.743 193.932 368.743 192.742V158.848C368.743 157.658 369.658 156.694 370.786 156.694H379.042C380.17 156.694 381.085 157.658 381.085 158.848Z"
        fill="#D2DCFF" />
    <path
        d="M403.519 144.639V192.742C403.519 193.932 402.604 194.896 401.476 194.896H393.22C392.092 194.896 391.177 193.932 391.177 192.742V144.639C391.177 143.45 392.092 142.486 393.22 142.486H401.476C402.604 142.486 403.519 143.45 403.519 144.639Z"
        fill="#D2DCFF" />
    <path
        d="M430.535 169.204V192.741C430.535 193.931 429.621 194.895 428.492 194.895H420.237C419.108 194.895 418.194 193.931 418.194 192.741V169.204C418.194 168.015 419.108 167.051 420.237 167.051H428.492C429.621 167.051 430.535 168.015 430.535 169.204Z"
        fill="#D2DCFF" />
    <path
        d="M452.971 158.848V192.741C452.971 193.931 452.057 194.895 450.928 194.895H442.673C441.544 194.895 440.629 193.931 440.629 192.741V158.848C440.629 157.658 441.544 156.694 442.673 156.694H450.928C452.055 156.694 452.971 157.658 452.971 158.848Z"
        fill="#D2DCFF" />
    <path d="M435.038 352.861L447.299 460H451.32L439.06 352.861H435.038Z" fill="#D2DCFF" />
    <path d="M489.222 352.859L490.6 364.909L501.482 459.999H505.504L494.568 364.437L493.243 352.859H489.222Z"
        fill="#D2DCFF" />
    <path
        d="M435.038 459.999H439.06L440.754 445.181L442.765 427.612L449.379 369.822L451.32 352.859H447.298L445.302 370.306L440.754 410.041L438.745 427.61L435.038 459.999Z"
        fill="#D2DCFF" />
    <path d="M380.856 459.999H384.878L394.394 376.84H394.395L397.138 352.859H393.117L390.319 377.303L380.856 459.999Z"
        fill="#D2DCFF" />
    <path d="M493.047 281.239H489.025V346.048H493.047V281.239Z" fill="#D2DCFF" />
    <path d="M438.403 281.239H434.383V346.048H438.403V281.239Z" fill="#D2DCFF" />
    <path
        d="M391.429 346.048H446.678C444.894 346.048 443.447 347.572 443.447 349.453C443.447 351.334 444.894 352.859 446.678 352.859H391.429C389.644 352.859 388.197 351.334 388.197 349.453C388.197 347.572 389.644 346.048 391.429 346.048Z"
        fill="#D2DCFF" />
    <path
        d="M443.448 349.453C443.448 347.572 444.895 346.048 446.679 346.048H488.94H494.384C496.169 346.048 497.616 347.572 497.616 349.453C497.616 351.334 496.169 352.859 494.384 352.859H488.94H446.679C444.895 352.859 443.448 351.334 443.448 349.453Z"
        fill="#86A2E2" />
    <path
        d="M431.096 232.466H496.331C498.818 232.466 500.835 234.593 500.835 237.213V276.492C500.835 279.113 498.818 281.239 496.331 281.239H431.096C428.609 281.239 426.592 279.113 426.592 276.492V237.213C426.592 234.591 428.608 232.466 431.096 232.466Z"
        fill="#D2DCFF" />
    <path d="M489.222 352.859L490.6 364.909C492.054 364.736 493.381 364.579 494.567 364.439L493.242 352.859H489.222Z"
        fill="#AEC3FF" />
    <path d="M447.299 352.859L445.302 370.307C446.668 370.146 448.028 369.983 449.379 369.823L451.32 352.859H447.299Z"
        fill="#AEC3FF" />
    <path
        d="M390.32 377.303C391.618 377.157 392.979 377.003 394.395 376.84H394.396L397.139 352.859H393.118L390.32 377.303Z"
        fill="#AEC3FF" />
    <path d="M493.045 281.239H489.024V290.19L493.045 289.721V281.239Z" fill="#AEC3FF" />
    <path d="M434.383 281.239V296.565L438.403 296.096V281.239H434.383Z" fill="#AEC3FF" />
    <path
        d="M412.608 179.858C414.101 198.947 427.259 210.915 434.979 210.915C436.138 210.915 437.399 210.697 438.716 210.316V219.837H458.3V195.629C458.481 195.128 458.657 194.573 458.829 193.982C467.512 193.107 467.152 177.983 461.993 177.983C461.055 177.983 460.427 178.918 460.032 179.859L458.752 181.209V174.376C458.752 174.376 455.871 174.661 450.197 165.55C447.749 169.464 428.226 175.61 412.559 172.857C412.558 172.857 412.518 176.256 412.608 179.858Z"
        fill="#FCBEB7" />
    <path
        d="M436.331 146.948C449.837 146.948 452.539 154.54 452.539 154.54C458.302 154.54 467.126 165.645 461.813 177.982L461.785 178.011L458.751 181.209V174.376C458.751 174.376 455.87 174.661 450.196 165.55C447.749 169.464 428.225 175.61 412.558 172.857C412.558 172.857 412.518 176.256 412.607 179.858C412.607 179.862 412.607 179.865 412.607 179.869C406.756 162.026 418.502 146.948 436.331 146.948Z"
        fill="#311643" />
    <path
        d="M442.138 185.07C442.735 185.07 443.218 184.56 443.218 183.93V181.803C443.218 181.174 442.735 180.664 442.138 180.664C441.54 180.664 441.057 181.174 441.057 181.803V183.93C441.057 184.56 441.54 185.07 442.138 185.07Z"
        fill="#311643" />
    <path
        d="M422.104 185.07C422.701 185.07 423.185 184.56 423.185 183.93V181.803C423.185 181.174 422.701 180.664 422.104 180.664C421.507 180.664 421.023 181.174 421.023 181.803V183.93C421.023 184.56 421.507 185.07 422.104 185.07Z"
        fill="#311643" />
    <path
        d="M434.193 198.363C436.121 198.363 437.434 197.599 438.23 196.902C439.233 196.024 439.65 195.066 439.668 195.026C439.78 194.764 439.669 194.455 439.42 194.336C439.171 194.217 438.879 194.335 438.765 194.596C438.709 194.725 437.34 197.753 433.36 197.267C433.088 197.235 432.843 197.438 432.81 197.726C432.778 198.014 432.973 198.271 433.246 198.304C433.578 198.344 433.893 198.363 434.193 198.363Z"
        fill="#311643" />
    <path
        d="M449.313 194.513C452.263 194.513 454.656 191.991 454.656 188.881C454.656 185.77 452.263 183.249 449.313 183.249C446.362 183.249 443.969 185.77 443.969 188.881C443.969 191.991 446.362 194.513 449.313 194.513Z"
        fill="#F49795" />
    <path
        d="M413.163 184.205C413.841 187.988 414.975 191.436 416.41 194.505C419.236 194.357 421.483 191.896 421.483 188.881C421.483 185.771 419.092 183.25 416.141 183.25C415.039 183.249 414.014 183.602 413.163 184.205Z"
        fill="#F49795" />
    <path
        d="M414.534 179.734C414.534 184.135 417.931 187.714 422.104 187.714C426.183 187.714 429.517 184.296 429.668 180.036C431.932 178.685 433.948 179.655 434.574 180.029C434.722 184.294 438.057 187.714 442.138 187.714C446.313 187.714 449.708 184.135 449.708 179.734C449.708 175.334 446.311 171.755 442.138 171.755C438.238 171.755 435.018 174.878 434.611 178.876C433.624 178.398 431.752 177.828 429.631 178.88C429.225 174.88 426.004 171.755 422.103 171.755C417.931 171.755 414.534 175.334 414.534 179.734ZM435.559 179.734C435.559 175.909 438.511 172.798 442.14 172.798C445.769 172.798 448.721 175.909 448.721 179.734C448.721 183.558 445.769 186.671 442.14 186.671C438.511 186.671 435.559 183.559 435.559 179.734ZM415.525 179.734C415.525 175.909 418.476 172.798 422.105 172.798C425.735 172.798 428.686 175.909 428.686 179.734C428.686 183.558 425.735 186.671 422.105 186.671C418.476 186.671 415.525 183.559 415.525 179.734Z"
        fill="white" />
    <path d="M438.717 219.837V210.315C443.145 209.032 448.187 205.89 451.976 202.893L438.717 219.837Z" fill="#F9AFAB" />
    <path d="M383.072 382.597L387.161 382.006L391.033 348.168H387.011L383.072 382.597Z" fill="#EBEDF4" />
    <path d="M393.934 253.283L390.383 260.459H409.311L393.934 253.283Z" fill="#FCBEB7" />
    <path
        d="M430.186 441.288V456.738C430.186 458.539 428.8 459.999 427.091 459.999H385.516C385.121 459.999 384.801 459.661 384.801 459.245V456.397C384.801 455.023 385.561 453.774 386.746 453.203L410.785 441.287H430.186V441.288Z"
        fill="#2F3D6C" />
    <path d="M430.187 432.499L430.178 441.288H410.787L409.447 432.499H430.187Z" fill="#FCBEB7" />
    <path
        d="M438.751 210.857L412.426 223.389C408.807 225.113 405.861 228.099 404.087 231.845L393.933 253.282L409.311 260.458L408.037 307.844H484.666L481.32 263.588L495.178 263.683V239.469C495.178 231.968 490.903 225.204 484.336 222.313L458.302 210.855C458.3 210.857 446.926 218.724 438.751 210.857Z"
        fill="#89AEFF" />
    <path
        d="M432.451 213.74C436.607 217.41 441.802 219.408 447.287 219.408C453.063 219.408 458.756 216.978 463.013 212.931L462.175 212.563C458.101 216.33 452.756 218.573 447.286 218.573C442.123 218.573 437.226 216.74 433.266 213.366L432.451 213.74Z"
        fill="white" />
    <path
        d="M389.389 441.288V456.738C389.389 458.539 388.003 459.999 386.294 459.999H344.719C344.323 459.999 344.003 459.661 344.003 459.245V456.397C344.003 455.023 344.763 453.774 345.948 453.203L369.987 441.287H389.389V441.288Z"
        fill="#2F3D6C" />
    <path d="M389.389 432.499L389.379 441.288H369.989L368.647 432.499H389.389Z" fill="#FCBEB7" />
    <path
        d="M443.868 307.845V308.67C443.884 329.425 427.925 346.259 408.233 346.259H391.679L389.39 432.496H368.647L353.354 329.672C351.648 318.206 360.059 307.844 371.07 307.844H443.868V307.845Z"
        fill="#6277D7" />
    <path
        d="M353.134 326.791C354.92 329.545 357.925 331.353 361.331 331.353C366.814 331.353 371.258 326.668 371.258 320.889C371.258 315.339 367.159 310.799 361.978 310.448C356.628 313.772 353.105 319.928 353.134 326.791Z"
        fill="#4A5EA3" />
    <path d="M393.937 326.388L391.68 346.26H405.263L393.937 326.388Z" fill="#4A5EA3" />
    <path
        d="M484.666 307.845V308.67C484.682 329.425 468.723 346.259 449.031 346.259H432.477L430.187 432.496H409.445L394.152 329.672C392.446 318.206 400.857 307.844 411.868 307.844H484.666V307.845Z"
        fill="#6277D7" />
    <path
        d="M495.177 263.684L494.44 290.522C494.24 297.775 488.605 303.547 481.72 303.547H437.396L434.42 292.62L473.517 285.828L473.794 263.538L495.177 263.684Z"
        fill="#FCBEB7" />
    <path
        d="M482.033 297.966C482.033 300.087 482.938 301.986 484.364 303.257C488.946 302.236 492.628 298.617 493.933 293.91C492.74 292.17 490.799 291.038 488.606 291.038C484.976 291.037 482.033 294.139 482.033 297.966Z"
        fill="#F9AFAB" />
    <path d="M473.793 263.539L467.791 286.823L473.516 285.828L473.793 263.539Z" fill="#4A62D3" />
    <path d="M439.882 291.672L446.87 303.547H437.396L434.42 292.62L439.882 291.672Z" fill="#F9AFAB" />
    <path
        d="M363.716 260.46H421.512C423.968 260.46 426.127 262.174 426.805 264.662L437.395 303.546H460.832C461.958 303.546 462.871 304.509 462.871 305.696C462.871 306.883 461.958 307.845 460.832 307.845H438.566H431.486H369.312L358.423 267.865C357.413 264.156 360.054 260.46 363.716 260.46Z"
        fill="#4A5EA3" />
    <path
        d="M393.935 326.388C395.684 329.368 398.813 331.353 402.382 331.353C407.865 331.353 412.31 326.669 412.31 320.889C412.31 315.257 408.089 310.664 402.799 310.434C397.542 313.692 394.043 319.678 393.935 326.388Z"
        fill="#4A5EA3" />
    <path
        d="M395.917 289.092C397.097 288.983 397.931 287.422 397.779 285.606C397.628 283.791 396.548 282.407 395.368 282.516C394.188 282.626 393.354 284.187 393.506 286.003C393.657 287.818 394.736 289.202 395.917 289.092Z"
        fill="#89AEFF" />
    <path
        d="M483.553 232.169C483.553 235.553 486.156 238.297 489.366 238.297C491.682 238.297 493.68 236.87 494.615 234.806C493.794 231.461 492.103 228.432 489.754 226.057C489.626 226.047 489.497 226.043 489.366 226.043C486.155 226.043 483.553 228.786 483.553 232.169Z"
        fill="#4A62D3" />
    <path
        d="M404.446 231.128C405.372 231.786 406.488 232.169 407.689 232.169C410.899 232.169 413.501 229.425 413.501 226.043C413.501 225.015 413.262 224.046 412.837 223.195L412.426 223.391C409.041 225.002 406.246 227.718 404.446 231.128Z"
        fill="#4A62D3" />
    <path d="M286.695 286.384L266.407 459.279H262.378L282.666 286.384H286.695Z" fill="#D2DCFF" />
    <path d="M199.527 351.963L187.245 459.279H183.219L195.498 351.963H199.527Z" fill="#D2DCFF" />
    <path d="M145.255 351.962L143.874 364.032L132.974 459.278H128.947L139.9 363.56L141.227 351.962H145.255Z"
        fill="#D2DCFF" />
    <path
        d="M199.527 459.278H195.498L193.801 444.436L191.786 426.838L185.163 368.953L183.219 351.962H187.246L189.247 369.438L193.801 409.238L195.814 426.836L199.527 459.278Z"
        fill="#D2DCFF" />
    <path d="M253.799 459.278H249.771L240.24 375.982H240.239L237.491 351.962H241.518L244.32 376.446L253.799 459.278Z"
        fill="#D2DCFF" />
    <path d="M145.451 280.223H141.423V345.139H145.451V280.223Z" fill="#D2DCFF" />
    <path d="M200.182 280.223H196.155V345.139H200.182V280.223Z" fill="#D2DCFF" />
    <path
        d="M243.208 345.139H187.867C189.654 345.139 191.104 346.667 191.104 348.551C191.104 350.434 189.654 351.962 187.867 351.962H243.208C244.995 351.962 246.444 350.434 246.444 348.551C246.444 346.667 244.995 345.139 243.208 345.139Z"
        fill="#D2DCFF" />
    <path
        d="M191.105 348.551C191.105 346.667 189.655 345.139 187.868 345.139H145.538H140.085C138.298 345.139 136.848 346.667 136.848 348.551C136.848 350.434 138.298 351.962 140.085 351.962H145.538H187.868C189.655 351.962 191.105 350.434 191.105 348.551Z"
        fill="#86A2E2" />
    <path
        d="M201.869 280.223H139.742C136.363 280.223 133.623 277.336 133.623 273.774V237.821C133.623 234.259 136.363 231.371 139.742 231.371H201.869C205.248 231.371 207.988 234.259 207.988 237.821V273.774C207.988 277.337 205.249 280.223 201.869 280.223Z"
        fill="#D2DCFF" />
    <path d="M145.255 351.962L143.874 364.032C142.419 363.859 141.089 363.701 139.9 363.56L141.228 351.962H145.255Z"
        fill="#AEC3FF" />
    <path d="M187.246 351.962L189.247 369.439C187.878 369.277 186.516 369.115 185.163 368.953L183.219 351.962H187.246Z"
        fill="#AEC3FF" />
    <path
        d="M244.32 376.446C243.021 376.299 241.657 376.144 240.24 375.983H240.239L237.491 351.962H241.518L244.32 376.446Z"
        fill="#AEC3FF" />
    <path d="M141.425 280.223H145.453V289.189L141.425 288.72V280.223Z" fill="#AEC3FF" />
    <path d="M200.186 280.223V295.576L196.158 295.106V280.223H200.186Z" fill="#AEC3FF" />
    <path
        d="M208.061 166.303C203.328 174.555 188.863 186.43 167.354 179.182V179.183C167.287 179.173 167.22 179.167 167.149 179.167C162.032 179.167 161.676 194.166 170.286 195.032C170.413 195.473 170.544 195.89 170.677 196.283V220.675H190.099V211.194C191.453 211.596 192.751 211.827 193.939 211.827C201.973 211.827 215.939 198.764 216.256 178.186C214.107 177.676 208.061 172.061 208.061 166.303Z"
        fill="#FCBEB7" />
    <path
        d="M220.335 172.202C220.335 158.649 208.994 147.667 191.988 147.667C177.855 147.667 172.997 155.887 172.997 155.887C172.997 155.887 159.638 158.93 159.638 176.427C159.638 192.692 159.638 220.676 159.638 220.676H181.589H182.708H198.92H216.542V184.235C217.934 182.434 220.335 178.426 220.335 172.202ZM193.938 211.828C192.749 211.828 191.452 211.597 190.098 211.195V220.676H170.675V196.284C170.542 195.893 170.412 195.474 170.285 195.034C161.674 194.166 162.031 179.168 167.148 179.168C167.217 179.168 167.285 179.174 167.352 179.184V179.183C188.862 186.431 203.327 174.555 208.06 166.304C208.06 172.062 214.105 177.676 216.256 178.189C215.938 198.765 201.972 211.828 193.938 211.828Z"
        fill="#311643" />
    <path d="M155.464 218.877L170.676 211.448L179.025 211.682L190.099 212.232L206.015 217.325V238.729H155.464V218.877Z"
        fill="#FCBEB7" />
    <path
        d="M206.015 240.04V217.326L190.1 212.233V211.195C185.599 209.856 180.483 206.614 176.727 203.589L206.015 240.04Z"
        fill="#F9AFAB" />
    <path
        d="M179.726 195.561C182.652 195.561 185.024 193.061 185.024 189.976C185.024 186.891 182.652 184.391 179.726 184.391C176.799 184.391 174.427 186.891 174.427 189.976C174.427 193.061 176.799 195.561 179.726 195.561Z"
        fill="#F49795" />
    <path
        d="M215.575 185.338C214.903 189.089 213.777 192.51 212.355 195.553C209.553 195.406 207.324 192.965 207.324 189.975C207.324 186.89 209.697 184.391 212.622 184.391C213.715 184.391 214.731 184.74 215.575 185.338Z"
        fill="#F49795" />
    <path
        d="M206.613 172.99C202.744 172.99 199.55 176.091 199.148 180.057C197.044 179.014 195.188 179.579 194.208 180.053C193.803 176.088 190.611 172.99 186.744 172.99C182.603 172.99 179.235 176.54 179.235 180.904C179.235 185.268 182.603 188.818 186.744 188.818C190.792 188.818 194.1 185.424 194.245 181.194C194.869 180.816 196.849 179.852 199.11 181.203C199.26 185.428 202.567 188.818 206.612 188.818C210.752 188.818 214.12 185.268 214.12 180.904C214.12 176.54 210.753 172.99 206.613 172.99ZM186.744 187.783C183.145 187.783 180.217 184.698 180.217 180.904C180.217 177.111 183.144 174.025 186.744 174.025C190.343 174.025 193.27 177.111 193.27 180.904C193.27 184.698 190.343 187.783 186.744 187.783ZM206.613 187.783C203.015 187.783 200.086 184.698 200.086 180.904C200.086 177.111 203.014 174.025 206.613 174.025C210.212 174.025 213.14 177.111 213.14 180.904C213.14 184.698 210.212 187.783 206.613 187.783Z"
        fill="white" />
    <path
        d="M206.618 185.965C206.027 185.965 205.547 185.459 205.547 184.836V182.727C205.547 182.102 206.027 181.596 206.618 181.596C207.21 181.596 207.69 182.102 207.69 182.727V184.836C207.69 185.459 207.211 185.965 206.618 185.965Z"
        fill="#311643" />
    <path
        d="M187.071 185.965C186.479 185.965 185.999 185.459 185.999 184.836V182.727C185.999 182.102 186.479 181.596 187.071 181.596C187.663 181.596 188.142 182.102 188.142 182.727V184.836C188.143 185.459 187.663 185.965 187.071 185.965Z"
        fill="#311643" />
    <path
        d="M194.72 199.38C192.807 199.38 191.505 198.622 190.716 197.932C189.721 197.061 189.308 196.111 189.29 196.071C189.179 195.809 189.289 195.503 189.537 195.386C189.784 195.268 190.073 195.384 190.186 195.643C190.242 195.771 191.601 198.773 195.547 198.292C195.817 198.259 196.06 198.463 196.092 198.748C196.123 199.032 195.93 199.289 195.659 199.322C195.33 199.361 195.017 199.38 194.72 199.38Z"
        fill="#311643" />
    <path
        d="M238.685 451.212L220.867 443.139L221.781 447.793L199.863 440.538V447.158C199.863 449.486 201.018 451.596 202.834 452.782L204.719 458.462C204.882 458.953 205.322 459.282 205.816 459.282C206.457 459.282 206.977 458.735 206.977 458.059V454.364L221.957 459.282H237.11C239.314 459.282 241.1 457.4 241.1 455.077C241.098 453.394 240.149 451.875 238.685 451.212Z"
        fill="#2F3D6C" />
    <path
        d="M277.538 451.212L259.72 443.139L260.634 447.793L238.716 440.538V447.158C238.716 449.486 239.871 451.596 241.687 452.782L243.572 458.462C243.735 458.953 244.174 459.282 244.669 459.282C245.31 459.282 245.83 458.735 245.83 458.059V454.364L260.809 459.282H275.963C278.166 459.282 279.952 457.4 279.952 455.077C279.952 453.394 279.003 451.875 277.538 451.212Z"
        fill="#2F3D6C" />
    <path d="M199.863 431.732L199.873 440.537L221.781 447.791L220.867 443.139L219.048 442.159L220.639 431.732H199.863Z"
        fill="#FCBEB7" />
    <path d="M238.716 431.732L238.727 440.537L260.635 447.791L259.72 443.139L257.901 442.162L259.492 431.732H238.716Z"
        fill="#FCBEB7" />
    <path
        d="M184.147 306.875V307.702C184.131 328.492 200.116 345.354 219.841 345.354H236.422L238.717 431.733H259.492L274.811 328.741C276.519 317.255 268.095 306.876 257.066 306.876H184.147V306.875Z"
        fill="#6277D7" />
    <path d="M234.996 335.199L236.422 345.353H233.396L234.996 335.199Z" fill="#4A5EA3" />
    <path
        d="M151.554 322.567C152.594 335.453 162.821 345.354 175.091 345.354H197.57L199.864 431.734H220.64L235.797 329.829C237.59 317.773 228.747 306.876 217.169 306.876H215.506L210.737 291.853H156.01L151.85 316.01C151.476 318.172 151.377 320.377 151.554 322.567Z"
        fill="#6277D7" />
    <path
        d="M183.497 229.071C187.186 229.071 190.137 225.326 192.126 221.534H171.089C174.296 225.316 178.692 229.071 183.497 229.071Z"
        fill="white" />
    <path
        d="M223.035 229.648L221.58 227.26C219.69 224.159 217.03 221.691 213.916 220.107C213.048 219.666 212.147 219.294 211.214 218.995L195.005 213.792C195.005 214.41 193.985 217.994 192.128 221.535C190.138 225.327 187.188 229.072 183.499 229.072C178.693 229.072 174.299 225.317 171.09 221.535C167.834 217.697 165.801 213.83 165.801 213.83L151.316 220.904C145.389 223.8 141.024 229.369 139.446 236.053L132.99 257.8C131.885 261.521 131.323 265.398 131.323 269.298V271.1C131.323 275.774 134.918 279.562 139.353 279.562H154.795L156.01 291.852H210.735L224.529 232.098L223.035 229.648Z"
        fill="#FE9ECC" />
    <path
        d="M184.037 234.465C180.994 234.465 177.899 233.49 174.835 231.565C172.402 230.037 169.985 227.911 167.648 225.244C163.683 220.72 161.266 216.1 161.242 216.055L162.056 215.657C162.079 215.702 164.422 220.18 168.317 224.621C170.594 227.216 172.943 229.282 175.3 230.761C178.221 232.594 181.16 233.523 184.037 233.523C186.751 233.523 189.197 232.568 191.305 230.684C193.01 229.16 194.506 227.027 195.75 224.344C197.888 219.733 198.541 214.975 198.547 214.928L199.436 215.213C199.409 215.409 198.756 219.994 196.562 224.738C195.264 227.544 193.692 229.783 191.891 231.396C189.616 233.433 186.973 234.465 184.037 234.465Z"
        fill="white" />
    <path
        d="M274.827 328.625C273.012 330.686 270.42 331.975 267.541 331.975C262.048 331.975 257.596 327.282 257.596 321.492C257.596 315.703 262.048 311.011 267.541 311.011C267.8 311.011 268.057 311.021 268.311 311.041C273.09 315.096 275.826 321.651 274.827 328.625Z"
        fill="#4A5EA3" />
    <path
        d="M236.026 326.474C234.344 329.751 231.056 331.975 227.275 331.975C221.782 331.975 217.331 327.282 217.331 321.492C217.331 315.703 221.782 311.011 227.275 311.011C227.81 311.011 228.334 311.056 228.847 311.142C233.189 314.763 235.958 320.335 236.026 326.474Z"
        fill="#4A5EA3" />
    <path
        d="M138.544 279.561H198.591V271.573L139.368 264.39C135.082 263.871 131.323 267.403 131.323 271.951C131.324 276.155 134.556 279.561 138.544 279.561Z"
        fill="#FCBEB7" />
    <path
        d="M273.711 232.097H212.357C209.897 232.097 207.734 233.814 207.056 236.307L196.447 275.255H173.021C171.914 275.255 170.97 276.162 170.932 277.329C170.891 278.554 171.82 279.561 172.974 279.561H202.366H264.643L276.506 236.006C277.039 234.049 275.644 232.097 273.711 232.097Z"
        fill="#4A5EA3" />
    <path
        d="M240.804 257.568C240.955 255.749 240.12 254.186 238.938 254.076C237.756 253.967 236.674 255.352 236.523 257.171C236.371 258.989 237.207 260.552 238.389 260.662C239.571 260.772 240.652 259.386 240.804 257.568Z"
        fill="#2F3D6C" />
    <path d="M156.008 291.852L153.819 304.562L211.993 295.815L210.735 291.852H156.008Z" fill="#4A5EA3" />
    <path
        d="M152.86 224.532C152.86 228.368 149.911 231.476 146.271 231.476C144.608 231.476 143.089 230.826 141.93 229.755C144.128 225.929 147.377 222.827 151.315 220.903L151.756 220.687C152.454 221.788 152.86 223.112 152.86 224.532Z"
        fill="#FF78BA" />
    <path
        d="M223.037 229.648C222.016 230.335 220.803 230.731 219.503 230.731C215.865 230.731 212.914 227.622 212.914 223.787C212.914 222.436 213.282 221.173 213.916 220.105C217.032 221.69 219.691 224.158 221.58 227.259L223.037 229.648Z"
        fill="#FF78BA" />
    <path
        d="M201.968 254.994C201.713 255.929 190.57 268.577 190.57 268.577L160.877 266.999L197.49 271.44L201.968 254.994Z"
        fill="#FF78BA" />
    <path d="M84.6778 286.385L79.2498 332.642L64.3896 459.279H60.3607L75.1789 333.004L80.6501 286.385H84.6778Z"
        fill="#D2DCFF" />
    <path d="M137.989 459.279H133.961L118.689 329.137L113.673 286.385H117.7L122.676 328.783L137.989 459.279Z"
        fill="#D2DCFF" />
    <path d="M80.6505 286.385H84.6782L79.2501 332.642L75.1793 333.004L80.6505 286.385Z" fill="#AEC3FF" />
    <path d="M117.7 286.385L122.676 328.783L118.689 329.137L113.673 286.385H117.7Z" fill="#AEC3FF" />
    <path d="M340.005 459.28H335.978L318.621 311.365L315.689 286.385H319.717L322.608 311.011L340.005 459.28Z"
        fill="#D2DCFF" />
    <path d="M322.608 311.011L318.621 311.365L315.689 286.385H319.717L322.608 311.011Z" fill="#AEC3FF" />
    <path
        d="M330.389 279.561H124.95V286.384H330.389C332.176 286.384 333.626 284.856 333.626 282.972C333.626 281.089 332.176 279.561 330.389 279.561Z"
        fill="#D2DCFF" />
    <path
        d="M83.1319 279.561H70.9924C69.2053 279.561 67.7559 281.089 67.7559 282.972C67.7559 284.856 69.2053 286.384 70.9924 286.384H83.1319H124.95V279.561H83.1319V279.561Z"
        fill="#86A2E2" />
    <path
        d="M325.768 271.935V270.196C325.768 269.657 325.354 269.222 324.844 269.222H286.554C284.623 269.222 283.057 270.872 283.057 272.909V275.875C283.057 277.911 284.623 279.562 286.554 279.562H324.844C325.354 279.562 325.768 279.126 325.768 278.588V276.849C325.768 276.311 325.354 275.875 324.844 275.875H287.961C287.184 275.875 286.554 275.211 286.554 274.392C286.554 273.574 287.184 272.91 287.961 272.91H324.844C325.355 272.909 325.768 272.473 325.768 271.935Z"
        fill="#6277D7" />
    <path
        d="M324.114 272.909V275.875H287.962C287.185 275.875 286.555 275.211 286.555 274.392C286.555 273.574 287.185 272.91 287.962 272.91H324.114V272.909Z"
        fill="#D2DCFF" />
    <path
        d="M323.034 261.596V259.856C323.034 259.319 322.62 258.882 322.11 258.882H289.292C287.36 258.882 285.794 260.533 285.794 262.57V265.536C285.794 267.572 287.36 269.222 289.292 269.222H322.11C322.62 269.222 323.034 268.787 323.034 268.248V266.509C323.034 265.971 322.62 265.535 322.11 265.535H290.698C289.922 265.535 289.292 264.871 289.292 264.052C289.292 263.233 289.922 262.57 290.698 262.57H322.11C322.62 262.568 323.034 262.133 323.034 261.596Z"
        fill="#F9A0C0" />
    <path
        d="M321.815 262.568V265.535H290.697C289.92 265.535 289.29 264.871 289.29 264.052C289.29 263.233 289.92 262.57 290.697 262.57H321.815V262.568Z"
        fill="#FFD9E8" />
    <path
        d="M101.167 262.97H119.235C120.127 262.97 120.817 263.791 120.711 264.723L119.182 278.181C119.092 278.968 118.459 279.561 117.706 279.561H102.695C101.943 279.561 101.309 278.968 101.22 278.181L99.6911 264.723C99.5857 263.791 100.276 262.97 101.167 262.97Z"
        fill="#D2DCFF" />
    <path
        d="M116.404 257.478V251.359L112.93 258.314V247.018L110.201 254.131L107.472 247.018V258.314L103.999 251.359V257.478L98.9366 248.9L101.166 262.97H110.201H119.236L121.465 248.9L116.404 257.478Z"
        fill="#6277D7" />
    <path
        d="M138.643 277.004C141.29 277.004 143.437 274.742 143.437 271.951C143.437 269.16 141.29 266.898 138.643 266.898C135.995 266.898 133.849 269.16 133.849 271.951C133.849 274.742 135.995 277.004 138.643 277.004Z"
        fill="#F9AFAB" />
    <path
        d="M560.766 351.683L558.075 375.214L554.841 403.466L552.809 421.228L552.117 427.252L550.085 445.02L548.371 459.999H544.305L548.055 427.256L550.085 409.49L550.775 403.466L552.809 385.703V385.699L554.158 373.912L556.7 351.683H560.766Z"
        fill="#D2DCFF" />
    <path d="M588 459.999H583.935L574.875 380.817L571.54 351.683H575.606L579.101 382.223L588 459.999Z" fill="#D2DCFF" />
    <path
        d="M534.076 351.683L532.362 366.646L525.427 427.252L523.394 445.02L521.68 459.999H517.614L521.361 427.256L523.394 409.49L528.448 365.34L530.01 351.683H534.076Z"
        fill="#D2DCFF" />
    <path
        d="M561.309 459.999H557.244L552.81 421.228L550.776 403.466L547.124 371.565L544.849 351.683H548.915L551.354 372.974L552.81 385.699V385.703L554.842 403.466L561.309 459.999Z"
        fill="#D2DCFF" />
    <path
        d="M578.35 351.682H525.593C523.839 351.682 522.419 350.183 522.419 348.336V348.142C522.419 346.294 523.841 344.796 525.593 344.796H578.35C580.103 344.796 581.524 346.295 581.524 348.142V348.336C581.524 350.183 580.103 351.682 578.35 351.682Z"
        fill="#D2DCFF" />
    <path
        d="M552.91 351.682H525.593C523.839 351.682 522.419 350.183 522.419 348.336V348.142C522.419 346.294 523.841 344.796 525.593 344.796H552.91C554.663 344.796 556.084 346.295 556.084 348.142V348.336C556.084 350.183 554.663 351.682 552.91 351.682Z"
        fill="#86A2E2" />
    <path
        d="M542.854 328.049H561.09C561.989 328.049 562.687 328.876 562.581 329.818L561.038 343.402C560.948 344.197 560.308 344.795 559.548 344.795H544.396C543.636 344.795 542.997 344.197 542.906 343.402L541.363 329.818C541.257 328.877 541.955 328.049 542.854 328.049Z"
        fill="#D2DCFF" />
    <path
        d="M558.231 322.506V316.329L554.724 323.35V311.948L551.97 319.128L549.216 311.948V323.35L545.71 316.329V322.506L540.602 313.848L542.852 328.049H551.97H561.089L563.34 313.848L558.231 322.506Z"
        fill="#FE9ECC" />
    <path d="M534.077 351.683L532.363 366.646L528.449 365.34L530.011 351.683H534.077Z" fill="#AEC3FF" />
    <path d="M551.354 372.974L547.124 371.565L544.849 351.683H548.915L551.354 372.974Z" fill="#AEC3FF" />
    <path d="M560.767 351.683L558.076 375.214L554.159 373.912L556.701 351.683H560.767Z" fill="#AEC3FF" />
    <path d="M579.101 382.223L574.875 380.817L571.54 351.683H575.606L579.101 382.223Z" fill="#AEC3FF" />
    <path
        d="M128.946 103.068V155.05C128.946 156.885 127.535 158.372 125.795 158.372H66.5074C64.7671 158.372 63.356 156.885 63.356 155.05V103.068C63.356 101.234 64.7659 99.7463 66.5074 99.7463H125.795C127.535 99.7463 128.946 101.234 128.946 103.068Z"
        fill="#FFD9E8" />
    <path
        d="M128.946 103.068V112.868H63.356V103.068C63.356 101.234 64.7671 99.7463 66.5074 99.7463H125.795C127.535 99.7463 128.946 101.234 128.946 103.068Z"
        fill="#FE9ECC" />
    <path
        d="M81.1303 103.907C80.2314 103.907 79.5037 103.14 79.5037 102.193V97.3014C79.5037 96.3552 80.2326 95.587 81.1303 95.587C82.0292 95.587 82.757 96.3552 82.757 97.3014V102.193C82.7582 103.14 82.0292 103.907 81.1303 103.907Z"
        fill="#FE9ECC" />
    <path
        d="M111.169 103.907C110.27 103.907 109.542 103.14 109.542 102.193V97.3014C109.542 96.3552 110.271 95.587 111.169 95.587C112.067 95.587 112.795 96.3552 112.795 97.3014V102.193C112.795 103.14 112.067 103.907 111.169 103.907Z"
        fill="#FE9ECC" />
    <path
        d="M82.0878 137.078L89.0888 130.45C89.4455 130.111 89.8011 129.726 90.1577 129.296C90.5144 128.867 90.6928 128.366 90.6928 127.794C90.6928 127.15 90.4713 126.644 90.0308 126.277C89.5891 125.91 89.072 125.727 88.4783 125.727C87.765 125.727 87.2096 125.959 86.8111 126.424C86.4125 126.89 86.1875 127.463 86.136 128.142L82.3177 127.847C82.3679 126.862 82.5631 126.008 82.903 125.284C83.2429 124.56 83.6917 123.956 84.2519 123.472C84.8121 122.989 85.4693 122.627 86.2246 122.386C86.9798 122.145 87.7985 122.024 88.6807 122.024C89.4958 122.024 90.2594 122.145 90.9716 122.386C91.6838 122.627 92.3039 122.985 92.8306 123.46C93.356 123.934 93.7678 124.528 94.0658 125.245C94.3626 125.96 94.511 126.793 94.511 127.741C94.511 128.349 94.4511 128.899 94.3326 129.391C94.2141 129.883 94.0478 130.33 93.836 130.732C93.6241 131.134 93.3727 131.506 93.0854 131.846C92.7969 132.186 92.4821 132.517 92.1434 132.838L86.6698 137.803H94.663V141.346H82.0867V137.078H82.0878Z"
        fill="#FE9ECC" />
    <path
        d="M103.677 134.556C103.474 134.609 103.27 134.654 103.067 134.689C102.863 134.726 102.65 134.742 102.43 134.742C101.581 134.742 100.809 134.582 100.114 134.259C99.4171 133.938 98.8234 133.499 98.3315 132.945C97.8395 132.391 97.4577 131.733 97.186 130.973C96.9143 130.213 96.7791 129.403 96.7791 128.544C96.7791 127.56 96.9525 126.671 97.3008 125.875C97.6479 125.079 98.1244 124.395 98.7264 123.822C99.3285 123.249 100.037 122.806 100.852 122.493C101.667 122.18 102.55 122.024 103.5 122.024C104.434 122.024 105.311 122.18 106.134 122.493C106.958 122.806 107.67 123.249 108.273 123.822C108.875 124.395 109.351 125.079 109.699 125.875C110.046 126.671 110.221 127.561 110.221 128.544C110.221 129.224 110.161 129.845 110.042 130.409C109.924 130.973 109.767 131.505 109.572 132.006C109.377 132.507 109.147 132.985 108.885 133.442C108.622 133.898 108.346 134.368 108.058 134.851L104.112 141.344H99.453L103.677 134.556ZM100.596 128.706C100.596 129.565 100.863 130.275 101.398 130.839C101.933 131.403 102.632 131.684 103.499 131.684C104.365 131.684 105.064 131.403 105.599 130.839C106.134 130.275 106.401 129.565 106.401 128.706C106.401 127.846 106.134 127.136 105.599 126.572C105.064 126.008 104.365 125.727 103.499 125.727C102.632 125.727 101.933 126.008 101.398 126.572C100.864 127.136 100.596 127.848 100.596 128.706Z"
        fill="#FE9ECC" />
    <path
        d="M103.686 151.328H88.6164C88.2502 151.328 87.9532 151.016 87.9532 150.629C87.9532 150.243 88.2502 149.931 88.6164 149.931H103.686C104.052 149.931 104.349 150.243 104.349 150.629C104.349 151.016 104.052 151.328 103.686 151.328Z"
        fill="#FE9ECC" />
    <path
        d="M43.4738 390.098C57.6888 362.667 12.8152 349.768 1.99835 360.648C-8.81967 371.53 27.0433 421.805 43.4738 390.098Z"
        fill="#FE9ECC" />
    <path
        d="M62.3387 381.725C90.2336 381.725 77.6093 329.136 65.6829 329.136C50.7306 329.137 30.1096 381.725 62.3387 381.725Z"
        fill="#FE9ECC" />
    <path
        d="M83.8393 400.802C106.838 420.534 127.05 376.382 118.873 363.186C110.695 349.991 57.2563 377.993 83.8393 400.802Z"
        fill="#FE9ECC" />
    <path
        d="M54.5108 413.858C50.6291 404.391 44.9473 395.569 37.6244 387.642C25.1653 374.155 12.0611 367.829 11.9294 367.768C11.5392 367.582 11.0795 367.765 10.9036 368.175C10.7276 368.586 10.9012 369.069 11.2902 369.256C11.4183 369.317 24.2962 375.541 36.5506 388.824C43.7323 396.607 49.3006 405.259 53.0997 414.539C53.5306 415.593 53.9315 416.656 54.3169 417.726H55.9747C55.5187 416.425 55.0339 415.135 54.5108 413.858Z"
        fill="#FF78BA" />
    <path
        d="M64.9895 339.92C65.0398 339.472 64.7358 339.066 64.3109 339.012C63.8847 338.958 63.5005 339.278 63.4503 339.727C63.4 340.174 59.4884 375.416 59.6883 417.726H61.2383C61.0384 375.526 64.9393 340.366 64.9895 339.92Z"
        fill="#FF78BA" />
    <path
        d="M111.127 369.095C110.889 368.719 110.408 368.618 110.052 368.869C109.941 368.947 98.7519 376.88 87.2408 389.928C80.9712 397.033 73.8446 406.561 68.6235 417.726H70.3567C75.4605 407.053 82.3094 397.92 88.3516 391.068C99.7417 378.153 110.803 370.306 110.914 370.228C111.268 369.978 111.364 369.471 111.127 369.095Z"
        fill="#FF78BA" />
    <path
        d="M61.2381 417.726H59.6881H55.9763H54.3185H32.6814C31.8495 417.726 31.2594 418.583 31.5167 419.416L32.8824 423.833L33.5743 426.069L43.4623 458.046C43.7304 458.914 44.4988 459.501 45.3642 459.501H81.0057C81.8711 459.501 82.6395 458.914 82.9076 458.046L92.7958 426.069L93.4863 423.833L94.852 419.416C95.1105 418.583 94.5205 417.726 93.6887 417.726H70.3505H68.6173H61.2381Z"
        fill="#D2DCFF" />
    <path d="M93.4898 423.833L92.7991 426.068H33.5753L32.8846 423.833H93.4898Z" fill="#AEC3FF" />
</svg>