<svg width="30" height="30" viewBox="0 0 18 20" fill="none" xmlns="http://www.w3.org/2000/svg">
    <path
        d="M0.559922 6.24497L8.55992 10.169C8.69689 10.2361 8.84739 10.271 8.99992 10.271C9.15245 10.271 9.30295 10.2361 9.43992 10.169L17.4399 6.24497C17.609 6.16309 17.7516 6.03523 17.8513 5.87606C17.9511 5.71689 18.004 5.53283 18.004 5.34497C18.004 5.15711 17.9511 4.97306 17.8513 4.81388C17.7516 4.65471 17.609 4.52686 17.4399 4.44497L9.43992 0.519971C9.30295 0.452859 9.15245 0.417969 8.99992 0.417969C8.84739 0.417969 8.69689 0.452859 8.55992 0.519971L0.559922 4.44497C0.390851 4.52686 0.248264 4.65471 0.148495 4.81388C0.0487269 4.97306 -0.0041883 5.15711 -0.0041883 5.34497C-0.0041883 5.53283 0.0487269 5.71689 0.148495 5.87606C0.248264 6.03523 0.390851 6.16309 0.559922 6.24497Z"
        fill="#e0dcd1" />
    <path
        d="M16.9999 8.37597C16.7347 8.37597 16.4804 8.48133 16.2928 8.66886C16.1053 8.8564 15.9999 9.11075 15.9999 9.37597V9.53897L8.99992 12.973L1.99992 9.53897V9.37597C1.99992 9.11075 1.89456 8.8564 1.70703 8.66886C1.51949 8.48133 1.26514 8.37597 0.999922 8.37597C0.734705 8.37597 0.480351 8.48133 0.292815 8.66886C0.105279 8.8564 -7.81054e-05 9.11075 -7.81054e-05 9.37597V10.162C-0.000453179 10.3494 0.0518488 10.5331 0.150863 10.6923C0.249878 10.8514 0.391619 10.9795 0.559922 11.062L8.55992 14.987C8.69689 15.0541 8.84739 15.089 8.99992 15.089C9.15245 15.089 9.30295 15.0541 9.43992 14.987L17.4399 11.062C17.6082 10.9795 17.75 10.8514 17.849 10.6923C17.948 10.5331 18.0003 10.3494 17.9999 10.162V9.37597C17.9999 9.11075 17.8946 8.8564 17.707 8.66886C17.5195 8.48133 17.2651 8.37597 16.9999 8.37597Z"
        fill="#e0dcd1" />
    <path
        d="M16.9929 13.191C16.7277 13.191 16.4734 13.2963 16.2858 13.4839C16.0983 13.6714 15.9929 13.9258 15.9929 14.191V14.354L8.99292 17.789L1.99292 14.354V14.191C1.99292 13.9258 1.88756 13.6714 1.70003 13.4839C1.51249 13.2963 1.25814 13.191 0.992922 13.191C0.727705 13.191 0.473351 13.2963 0.285815 13.4839C0.0982787 13.6714 -0.00707807 13.9258 -0.00707807 14.191V14.978C-0.00745315 15.1654 0.0448489 15.3491 0.143863 15.5083C0.242878 15.6674 0.384619 15.7955 0.552922 15.878L8.55292 19.803C8.69002 19.8702 8.84071 19.9052 8.99342 19.9052C9.14614 19.9052 9.29682 19.8702 9.43392 19.803L17.4339 15.878C17.602 15.7954 17.7436 15.6672 17.8424 15.5081C17.9412 15.349 17.9934 15.1653 17.9929 14.978V14.191C17.9929 13.9258 17.8876 13.6714 17.7 13.4839C17.5125 13.2963 17.2581 13.191 16.9929 13.191Z"
        fill="#e0dcd1" />
</svg>